<svg xmlns="http://www.w3.org/2000/svg" version="1.1" xmlns:xlink="http://www.w3.org/1999/xlink" xmlns:svgjs="http://svgjs.dev/svgjs" width="1000" height="1000" viewBox="0 0 1000 1000"><rect width="1000" height="1000" fill="#ffffff"></rect><g transform="matrix(0.7,0,0,0.7,150,106.25)"><svg viewBox="0 0 320 360" data-background-color="#ffffff" preserveAspectRatio="xMidYMid meet" height="1125" width="1000" xmlns="http://www.w3.org/2000/svg" xmlns:xlink="http://www.w3.org/1999/xlink"><g id="tight-bounds" transform="matrix(1,0,0,1,0,0)"><svg viewBox="0 0 320 360" height="360" width="320"><g><svg></svg></g><g><svg viewBox="0 0 320 360" height="360" width="320"><g><path xmlns="http://www.w3.org/2000/svg" d="M297.491 100.645c-12.426-21.51-112.674-79.355-137.491-79.355-24.817 0-125.028 57.845-137.491 79.355-11.591 20.02-11.591 138.726 0 158.746 12.463 21.474 112.674 79.319 137.491 79.319 24.817 0 125.064-57.845 137.491-79.355 11.591-20.02 11.591-138.69 0-158.71zM309.481 93.705c-14.461-24.998-119.469-86.295-149.481-86.295-30.012 0-135.02 61.297-149.481 86.295-14.025 24.199-14.025 148.391 0 172.59 14.461 24.998 119.469 86.295 149.481 86.295 30.012 0 135.02-61.297 149.481-86.259 14.025-24.235 14.025-148.427 0-172.626zM300.906 261.353c-12.753 22.055-115.472 81.317-140.906 81.318-25.434 0-128.153-59.298-140.906-81.354-11.881-20.529-11.881-142.178 0-162.707 12.753-22.019 115.472-81.281 140.906-81.281 25.434 0 128.153 59.298 140.906 81.318 11.881 20.529 11.881 142.178 0 162.706z" fill="#ff0000" fill-rule="nonzero" stroke="none" stroke-width="1" stroke-linecap="butt" stroke-linejoin="miter" stroke-miterlimit="10" stroke-dasharray="" stroke-dashoffset="0" font-family="none" font-weight="none" font-size="none" text-anchor="none" style="mix-blend-mode: normal" data-fill-palette-color="tertiary"></path></g><g transform="matrix(1,0,0,1,111.832680011738,90)"><svg viewBox="0 0 96.334639976524 180" height="180" width="96.334639976524"><g><svg viewBox="0 0 96.334639976524 180" height="180" width="96.334639976524"><g><svg viewBox="0 0 168.04347826086956 313.9870154113586" height="180" width="96.334639976524"><g transform="matrix(1,0,0,1,0,133.9870154113586)"><svg viewBox="0 0 168.04347826086956 180" height="180" width="168.04347826086956"><g><svg viewBox="0 0 168.04347826086956 180" height="180" width="168.04347826086956" id="textblock"><g><svg viewBox="0 0 168.04347826086956 180" height="180" width="168.04347826086956"><g transform="matrix(1,0,0,1,0,0)"><svg width="168.04347826086956" viewBox="0.8500000238418579 -40.43000030517578 37.75 40.43000030517578" height="180" data-palette-color="#ffffff"><path d="M6.13-40.43L15.8-20.34 14.92-18.41 4.37-40.43 6.13-40.43ZM9.64-40.43L17.55-24.19 16.65-22.27 7.89-40.43 9.64-40.43ZM13.16-40.43L19.31-28.03 18.43-26.1 11.4-40.43 13.16-40.43ZM17.09 0L17.09-13.62 29.81-40.43 31.57-40.43 18.85-13.62 18.85 0 17.09 0ZM20.61 0L20.61-13.62 33.33-40.43 35.08-40.43 22.36-13.62 22.36 0 20.61 0ZM24.12 0L24.12-13.62 36.84-40.43 38.6-40.43 25.88-13.62 25.88 0 24.12 0ZM2.61-40.43L14.45-15.48 26.29-40.43 28.05-40.43 15.33-13.62 15.33 0 13.57 0 13.57-13.62 0.85-40.43 2.61-40.43Z" opacity="1" transform="matrix(1,0,0,1,0,0)" fill="#ffffff" class="undefined-text-0" data-fill-palette-color="quaternary" id="text-0"></path></svg></g></svg></g></svg></g></svg></g><g transform="matrix(1,0,0,1,32.096304347826084,0)"><svg viewBox="0 0 103.8508695652174 91.4933354113586" height="91.4933354113586" width="103.8508695652174"><g><svg xmlns="http://www.w3.org/2000/svg" xmlns:xlink="http://www.w3.org/1999/xlink" version="1.1" x="0" y="0" viewBox="6.300000190734863 11.5 87.39999389648438 77" style="enable-background:new 0 0 100 100;" xml:space="preserve" height="91.4933354113586" width="103.8508695652174" class="icon-icon-0" data-fill-palette-color="quaternary" id="icon-0"><path d="M72.3 12.3L72.3 12.3 72.3 12.3l-0.4-0.8H28.2L6.3 50l21.8 38.5h43.7L93.7 50 72.3 12.3zM33.3 25.3L9.9 47.7l18.6-32.8L33.3 25.3zM70.7 14.8l6.4 35.7L36.9 25.8 70.7 14.8zM35.5 27.3l41 25.2-41 23.3V27.3zM77 54.5l-7.2 30.8-32.6-8.1L77 54.5zM33.5 75L9.9 50.5l23.6-22.7V75zM33.2 77.6l-4.6 7.7L11.5 55.1 33.2 77.6zM35 78.6l31.4 7.9H30.2L35 78.6zM79.3 53.3l11.6-2.5L72.1 84 79.3 53.3zM90.7 48.9l-11.4 2.5-5.9-33.1L90.7 48.9zM35 24.3l-5-10.8h38.2L35 24.3z" fill="#ffffff" data-fill-palette-color="quaternary"></path></svg></g></svg></g><g></g></svg></g></svg></g></svg></g></svg></g><defs></defs></svg><rect width="320" height="360" fill="none" stroke="none" visibility="hidden"></rect></g></svg></g></svg>