<svg xmlns="http://www.w3.org/2000/svg" version="1.1" xmlns:xlink="http://www.w3.org/1999/xlink" xmlns:svgjs="http://svgjs.dev/svgjs" width="1000" height="1000" viewBox="0 0 1000 1000"><rect width="1000" height="1000" fill="#000000"></rect><g transform="matrix(0.7,0,0,0.7,149.57575757575756,252.54999999999998)"><svg viewBox="0 0 396 280" data-background-color="#fdf8f1" preserveAspectRatio="xMidYMid meet" height="707" width="1000" xmlns="http://www.w3.org/2000/svg" xmlns:xlink="http://www.w3.org/1999/xlink"><g id="tight-bounds" transform="matrix(1,0,0,1,0.2400000000000091,0)"><svg viewBox="0 0 395.52 280" height="280" width="395.52"><g><svg viewBox="0 0 395.52 280" height="280" width="395.52"><g><svg viewBox="0 0 395.52 280" height="280" width="395.52"><g><svg viewBox="0 0 395.52 280" height="280" width="395.52"><g><svg viewBox="0 0 395.52 280" height="280" width="395.52"><g transform="matrix(1,0,0,1,131.78077928977712,74.00336708925556)"><svg viewBox="0 0 131.95844142044578 131.99326582148888" height="131.99326582148888" width="131.95844142044578"><g><svg xmlns="http://www.w3.org/2000/svg" xmlns:xlink="http://www.w3.org/1999/xlink" version="1.1" x="0" y="0" viewBox="5.825961112976074 5.81397819519043 88.3480453491211 88.3713607788086" enable-background="new 0 0 100 100" xml:space="preserve" height="131.99326582148888" width="131.95844142044578" class="icon-o-0" data-fill-palette-color="accent" id="o-0"><path fill-rule="evenodd" clip-rule="evenodd" d="M47.798 94.18c0.727 0.011 1.461 0.005 2.202-0.018 0.945-0.03 1.885-0.03 2.879-0.027l0.063-37.278c0-3.007 0.435-5.587 1.87-8.072 1.03 2.564 1.608 5.378 1.601 8.335l-0.025 36.586C77.7 90.6 94.174 72.156 94.174 49.988c0-7.721-1.999-14.99-5.503-21.338L65.442 42.008c-2.097 1.206-4.146 3.038-5.711 5.215-0.39-1.015-0.812-1.935-1.269-2.828 1.029-0.903 2.103-1.782 3.204-2.423l25.933-15.103c-0.895-1.465-1.929-2.867-2.967-4.226L59.134 37.533c-1.258 0.735-2.397 1.722-3.469 2.676-0.519-0.744-1.125-1.44-1.683-2.079 0.604-0.283 1.136-0.573 1.55-0.812L83.44 21.17C75.347 11.788 63.348 5.828 50 5.814 36.593 5.801 24.757 11.577 16.497 21.13l27.832 16.129c0.524 0.336 1.072 0.648 1.702 0.914-0.528 0.588-1.123 1.275-1.656 2.061-1.109-0.934-2.345-1.827-3.439-2.64L15.252 22.567c-0.955 1.371-1.941 2.772-2.801 4.313l25.777 15.053c1.12 0.758 2.243 1.559 3.315 2.451-0.451 0.944-0.904 1.928-1.274 2.986-1.529-2.256-3.616-4.122-6.072-5.546L11.35 28.578c-3.528 6.284-5.534 13.617-5.524 21.41 0.028 22.272 15.27 41.058 38.006 43.891l0.238-36.471c-0.017-2.96 0.01-6.121 0.996-8.751 1.434 2.477 2.681 5.668 2.718 8.751v36.734M52.677 32.995l22.314-12.921C68.229 14.4 59.502 10.973 50 10.973c-9.474 0-18.189 3.428-24.999 9.097l22.323 12.947c0.836 0.508 1.738 1.069 2.657 1.679C50.9 34.087 51.802 33.525 52.677 32.995L52.677 32.995zM32.474 46.825L13.659 35.972c-1.71 4.373-2.57 8.046-2.582 13.008-0.043 17.627 11.778 32.588 27.862 37.347l-0.028-29.103C38.911 52.683 36.25 49.003 32.474 46.825L32.474 46.825zM67.195 46.994l19.23-11.093c1.677 4.339 2.635 8.129 2.681 13.079 0.161 17.388-11.997 32.032-27.616 37.168l0.063-28.336C61.553 53.271 63.711 49.003 67.195 46.994L67.195 46.994zM47.661 43.785c0.724-0.864 1.458-1.7 2.298-2.387 0.757 0.864 1.452 1.698 2.162 2.558-0.793 1.138-1.544 2.382-2.169 3.695C49.295 46.272 48.502 44.969 47.661 43.785L47.661 43.785zM49.72 14.832c4.373 0 7.94 3.567 7.94 7.94s-3.567 7.94-7.94 7.94-7.94-3.567-7.94-7.94S45.346 14.832 49.72 14.832L49.72 14.832z" fill="#ffffff" data-fill-palette-color="accent"></path></svg></g></svg></g><path d="M190.346 280L190.67 276.777C191.824 276.635 192.671 276.453 193.211 276.232 193.75 276.011 194.117 275.673 194.309 275.219 194.495 274.765 194.587 274.068 194.585 273.128V273.128L194.583 272.137C194.582 271.45 194.5 270.816 194.339 270.236 194.171 269.656 193.866 268.953 193.425 268.127V268.127L189.186 260.071C188.603 258.965 187.995 258.125 187.36 257.553 186.725 256.974 185.857 256.532 184.756 256.227V256.227L184.585 256.027 184.949 252.875C185.396 252.874 186.203 252.896 187.371 252.94 188.545 252.978 189.642 252.996 190.663 252.994V252.994C191.517 252.992 192.757 252.939 194.385 252.836 196.012 252.739 197.086 252.677 197.606 252.65V252.65L197.857 253.059 197.573 255.872C196.805 255.9 196.255 256.004 195.922 256.185 195.589 256.366 195.423 256.65 195.424 257.036V257.036C195.424 257.397 195.773 258.36 196.47 259.926 197.16 261.499 197.545 262.395 197.626 262.615V262.615L198.46 264.555 198.961 264.554 201.55 258.595C201.935 257.714 202.128 257.08 202.127 256.693V256.693C202.126 256.419 201.982 256.22 201.695 256.093 201.402 255.967 200.911 255.892 200.224 255.866V255.866L200.093 255.616 200.428 252.894C201.502 252.892 202.356 252.904 202.99 252.929V252.929L206.342 252.962C207.196 252.961 208.076 252.939 208.983 252.897 209.897 252.849 210.491 252.811 210.764 252.783V252.783L210.935 253.073 210.651 256.056C209.657 256.471 208.801 257.08 208.083 257.882 207.37 258.684 206.616 259.829 205.818 261.318V261.318L201.941 268.81C201.615 269.471 201.416 270.119 201.344 270.753 201.279 271.393 201.248 272.457 201.251 273.945V273.945C201.252 274.852 201.397 275.485 201.685 275.845 201.979 276.205 202.5 276.384 203.247 276.382V276.382C203.74 276.381 204.174 276.367 204.547 276.34 204.921 276.305 205.174 276.275 205.308 276.248V276.248L205.478 276.498 205.114 279.77C204.534 279.745 203.483 279.704 201.962 279.647 200.448 279.596 198.987 279.573 197.58 279.575V279.575C196.559 279.577 195.228 279.637 193.588 279.753 191.947 279.863 190.867 279.946 190.346 280Z" fill="#ffffff" data-fill-palette-color="primary"></path><path d="M190.094 27.871L190.43 24.58C191.611 24.442 192.479 24.261 193.033 24.035 193.581 23.816 193.951 23.473 194.146 23.006 194.347 22.547 194.448 21.836 194.45 20.876V20.876L194.452 19.865C194.454 19.165 194.372 18.518 194.206 17.924 194.034 17.33 193.725 16.612 193.28 15.77V15.77L188.994 7.537C188.402 6.409 187.784 5.547 187.138 4.952 186.492 4.364 185.609 3.912 184.489 3.596V3.596L184.319 3.385 184.706 0.184C185.153 0.185 185.973 0.207 187.167 0.249 188.368 0.298 189.488 0.324 190.529 0.326V0.326C191.396 0.328 192.66 0.28 194.322 0.184 195.983 0.087 197.08 0.026 197.614 0V0L197.863 0.421 197.567 3.292C196.78 3.317 196.216 3.419 195.876 3.599 195.542 3.785 195.374 4.075 195.374 4.468V4.468C195.373 4.835 195.721 5.82 196.418 7.422 197.115 9.024 197.507 9.939 197.593 10.166V10.166L198.43 12.149 198.94 12.15 201.614 6.081C202.009 5.182 202.207 4.535 202.208 4.142V4.142C202.209 3.861 202.059 3.658 201.759 3.53 201.466 3.403 200.969 3.325 200.269 3.297V3.297L200.139 3.037 200.485 0.256C201.579 0.258 202.449 0.273 203.096 0.301V0.301L206.518 0.358C207.385 0.36 208.286 0.338 209.22 0.293 210.147 0.255 210.751 0.223 211.031 0.197V0.197L211.201 0.487 210.894 3.529C209.886 3.947 209.015 4.562 208.279 5.374 207.544 6.193 206.768 7.359 205.951 8.872V8.872L201.973 16.508C201.632 17.181 201.424 17.841 201.349 18.488 201.281 19.135 201.245 20.219 201.242 21.74V21.74C201.241 22.667 201.386 23.311 201.679 23.672 201.972 24.039 202.498 24.224 203.259 24.225V24.225C203.766 24.226 204.209 24.214 204.589 24.188 204.97 24.162 205.23 24.136 205.37 24.109V24.109L205.54 24.36 205.153 27.691C204.559 27.663 203.492 27.618 201.951 27.555 200.404 27.498 198.913 27.469 197.479 27.466V27.466C196.438 27.464 195.081 27.518 193.406 27.628 191.732 27.738 190.627 27.819 190.094 27.871Z" fill="#ffffff" data-fill-palette-color="primary"></path><path d="M61.192 143.564C61.192 137.769 65.89 133.072 71.684 133.072 77.479 133.072 82.176 137.769 82.176 143.564 82.176 149.358 77.479 154.056 71.684 154.056 65.89 154.056 61.192 149.358 61.192 143.564ZM313.344 143.564C313.344 137.769 318.041 133.072 323.836 133.072 329.63 133.072 334.328 137.769 334.328 143.564 334.328 149.358 329.63 154.056 323.836 154.056 318.041 154.056 313.344 149.358 313.344 143.564Z" fill="#ffffff" data-fill-palette-color="primary"></path></svg></g></svg></g></svg></g><g></g></svg></g><defs></defs></svg><rect width="395.52" height="280" fill="none" stroke="none" visibility="hidden"></rect></g></svg></g></svg>